<svg data-v-0dd9719b="" version="1.0" xmlns="http://www.w3.org/2000/svg" xmlns:xlink="http://www.w3.org/1999/xlink" width="100%" height="100%" viewBox="0 0 340.000000 250.000000" preserveAspectRatio="xMidYMid meet" color-interpolation-filters="sRGB" style="margin: auto;"> <rect data-v-0dd9719b="" x="0" y="0" width="100%" height="100%" fill="#fff" fill-opacity="1" class="background"></rect> <rect data-v-0dd9719b="" x="0" y="0" width="100%" height="100%" fill="url(#watermark)" fill-opacity="1" class="watermarklayer"></rect> <g data-v-0dd9719b="" fill="#333" class="icon-text-wrapper icon-svg-group iconsvg" transform="translate(47.8699951171875,94.8979549407959)"><g class="iconsvg-imagesvg" transform="translate(0,0)"><g><rect fill="#333" fill-opacity="0" stroke-width="2" x="0" y="0" width="60" height="60.2040918714442" class="image-rect"></rect> <svg x="0" y="0" width="60" height="60.2040918714442" filtersec="colorsb764759611" class="image-svg-svg primary" style="overflow: visible;"><svg xmlns="http://www.w3.org/2000/svg" viewBox="0.019996169954538345 -0.000002492994099156931 1036.97998046875 1040.510009765625"><defs><linearGradient id="ad724ea78-a7e6-437a-8ce8-169e1d3e7424" x1="143.22" y1="139.03" x2="764.02" y2="1036.8" gradientUnits="userSpaceOnUse"><stop offset="0" stop-color="#f39200"></stop><stop offset="1" stop-color="#e94e1b"></stop></linearGradient><linearGradient id="b7d9d04f7-c97d-464e-8182-b47ee6392ddc" x1="-125.39" y1="324.78" x2="495.41" y2="1222.55" gradientUnits="userSpaceOnUse"><stop offset="0" stop-color="#f39200"></stop><stop offset="1" stop-color="#e94e1b"></stop></linearGradient><linearGradient id="c9638b32f-42ca-43db-91cd-1126c731b78a" x1="295.31" y1="33.86" x2="916.11" y2="931.64" gradientUnits="userSpaceOnUse"><stop offset="0" stop-color="#f39200"></stop><stop offset="1" stop-color="#e94e1b"></stop></linearGradient><linearGradient id="d2c43afde-7b30-4463-b902-70881b913d09" x1="-155.73" y1="345.75" x2="465.07" y2="1243.53" gradientUnits="userSpaceOnUse"><stop offset="0" stop-color="#f39200"></stop><stop offset="1" stop-color="#e94e1b"></stop></linearGradient><linearGradient id="ef1aa4666-ec60-4583-892e-8459e3b1b49c" x1="-156.93" y1="346.58" x2="463.87" y2="1244.36" gradientUnits="userSpaceOnUse"><stop offset="0" stop-color="#f39200"></stop><stop offset="1" stop-color="#e94e1b"></stop></linearGradient><linearGradient id="f61b97079-3f11-4aa5-8e85-b0b06f46cce7" x1="-120.07" y1="321.09" x2="500.73" y2="1218.87" gradientUnits="userSpaceOnUse"><stop offset="0" stop-color="#f39200"></stop><stop offset="1" stop-color="#e94e1b"></stop></linearGradient><linearGradient id="g9605b29f-1d58-4c62-b37c-a95f2862b4a1" x1="175.38" y1="116.8" x2="796.18" y2="1014.57" gradientUnits="userSpaceOnUse"><stop offset="0" stop-color="#f39200"></stop><stop offset="1" stop-color="#e94e1b"></stop></linearGradient><linearGradient id="h3083b70e-4e90-4ba4-aa6b-00306f572fa0" x1="46.05" y1="206.22" x2="666.85" y2="1103.99" gradientUnits="userSpaceOnUse"><stop offset="0" stop-color="#f39200"></stop><stop offset="1" stop-color="#e94e1b"></stop></linearGradient><linearGradient id="i080354a0-0ee8-448a-ab20-0d2738c6f878" x1="-61.49" y1="280.59" x2="559.31" y2="1178.36" gradientUnits="userSpaceOnUse"><stop offset="0" stop-color="#f39200"></stop><stop offset="1" stop-color="#e94e1b"></stop></linearGradient><linearGradient id="j4d0d31d9-5ce4-493b-a331-5eea623f6ab4" x1="295.37" y1="33.82" x2="916.17" y2="931.59" gradientUnits="userSpaceOnUse"><stop offset="0" stop-color="#f39200"></stop><stop offset="1" stop-color="#e94e1b"></stop></linearGradient><linearGradient id="kbbb49561-7446-4b09-9d95-af8fa381062c" x1="142.26" y1="139.7" x2="763.06" y2="1037.47" gradientUnits="userSpaceOnUse"><stop offset="0" stop-color="#f39200"></stop><stop offset="1" stop-color="#e94e1b"></stop></linearGradient><linearGradient id="lb5e1f598-ce2e-4ac3-b21c-5c72a5dfe7e6" x1="562.96" y1="-151.22" x2="1183.76" y2="746.56" gradientUnits="userSpaceOnUse"><stop offset="0" stop-color="#f39200"></stop><stop offset="1" stop-color="#e94e1b"></stop></linearGradient><linearGradient id="m534167f2-41ec-45ed-824b-c8564b3a4996" x1="271.52" y1="50.31" x2="892.33" y2="948.09" gradientUnits="userSpaceOnUse"><stop offset="0" stop-color="#f39200"></stop><stop offset="1" stop-color="#e94e1b"></stop></linearGradient><linearGradient id="nfde48857-6af8-4b65-8379-a5d9e4e4603d" x1="403.17" y1="-40.72" x2="1023.98" y2="857.06" gradientUnits="userSpaceOnUse"><stop offset="0" stop-color="#f39200"></stop><stop offset="1" stop-color="#e94e1b"></stop></linearGradient><linearGradient id="obaa4240a-b9e9-4dde-874a-a62f5e856997" x1="496.77" y1="-105.44" x2="1117.57" y2="792.33" gradientUnits="userSpaceOnUse"><stop offset="0" stop-color="#f39200"></stop><stop offset="1" stop-color="#e94e1b"></stop></linearGradient><linearGradient id="pf9cc8846-f056-4985-bb13-a0b63ae4d8a7" x1="592.67" y1="-171.76" x2="1213.47" y2="726.02" gradientUnits="userSpaceOnUse"><stop offset="0" stop-color="#f39200"></stop><stop offset="1" stop-color="#e94e1b"></stop></linearGradient><linearGradient id="qf2a09f15-8283-4ffb-937f-5d53caf70fc1" x1="591.54" y1="-170.97" x2="1212.34" y2="726.8" gradientUnits="userSpaceOnUse"><stop offset="0" stop-color="#f39200"></stop><stop offset="1" stop-color="#e94e1b"></stop></linearGradient><linearGradient id="r2da040ed-e765-44fb-8b33-3e4949286052" x1="568.63" y1="-155.14" x2="1189.43" y2="742.64" gradientUnits="userSpaceOnUse"><stop offset="0" stop-color="#f39200"></stop><stop offset="1" stop-color="#e94e1b"></stop></linearGradient><linearGradient id="s19ee097b-3c34-474d-8f94-760ccbf461a8" x1="442.58" y1="-67.97" x2="1063.38" y2="829.8" gradientUnits="userSpaceOnUse"><stop offset="0" stop-color="#f39200"></stop><stop offset="1" stop-color="#e94e1b"></stop></linearGradient><linearGradient id="t957a53a2-88da-4b4d-9423-23a2baaedf96" x1="-5.05" y1="241.56" x2="615.75" y2="1139.33" gradientUnits="userSpaceOnUse"><stop offset="0" stop-color="#f39200"></stop><stop offset="1" stop-color="#e94e1b"></stop></linearGradient></defs><g><g><path d="M457.62 208.83h8.19a41.82 41.82 0 1 0 0-83.64H351.16a41.82 41.82 0 0 0 0 83.64 27.9 27.9 0 0 1-.33 55.79h-90.58a41.82 41.82 0 1 0 0 83.64h14.82a27.88 27.88 0 1 1 0 55.76h-91a41.84 41.84 0 1 0 0 83.67h151.61a27.88 27.88 0 0 1 0 55.76h-132a41.84 41.84 0 1 0 0 83.67h89.59a27.88 27.88 0 1 1 0 55.76h-47.73a41.83 41.83 0 1 0 0 83.65h111.35a27.9 27.9 0 0 1 0 55.79h-15.53a41.82 41.82 0 1 0 0 83.64h124.45a41.82 41.82 0 1 0 0-83.64h-11.22a27.9 27.9 0 0 1 0-55.79h11.22a41.83 41.83 0 1 0 0-83.65H391a27.88 27.88 0 1 1 0-55.76h74.86a41.84 41.84 0 1 0 0-83.67h-29.4a27.88 27.88 0 0 1 0-55.76h29.4a41.84 41.84 0 1 0 0-83.67h-90a27.88 27.88 0 0 1 0-55.76h90a41.82 41.82 0 1 0 0-83.64h-8.19a27.9 27.9 0 0 1 0-55.79z" fill="url(#ad724ea78-a7e6-437a-8ce8-169e1d3e7424)"></path><path d="M320.69 934.12a35.76 35.76 0 1 0 35.75 35.75 35.75 35.75 0 0 0-35.75-35.75z" fill="url(#b7d9d04f7-c97d-464e-8182-b47ee6392ddc)"></path><path d="M320.69 106.31a35.76 35.76 0 1 0-35.76-35.76 35.76 35.76 0 0 0 35.76 35.76z" fill="url(#c9638b32f-42ca-43db-91cd-1126c731b78a)"></path><path d="M221 822.32h-36.57a41.82 41.82 0 0 0 0 83.64H221a41.82 41.82 0 0 0 0-83.64z" fill="url(#d2c43afde-7b30-4463-b902-70881b913d09)"></path><path d="M167.18 724.71a41.82 41.82 0 0 0-41.82-41.82H79v.28a41.8 41.8 0 0 0 0 83.07v.29h46.38a41.82 41.82 0 0 0 41.8-41.82z" fill="url(#ef1aa4666-ec60-4583-892e-8459e3b1b49c)"></path><path d="M41.89 627.09h41.48a41.82 41.82 0 1 0 0-83.63H41.84a41.82 41.82 0 0 0 0 83.64z" fill="url(#f61b97079-3f11-4aa5-8e85-b0b06f46cce7)"></path><path d="M184.43 207.62v1.18H225.92a41.82 41.82 0 1 0 0-83.64h-41.49v1.23a41.77 41.77 0 0 0 0 81.23z" fill="url(#g9605b29f-1d58-4c62-b37c-a95f2862b4a1)"></path><path d="M85.87 348.12v.11H142.06a41.82 41.82 0 0 0 0-83.64H85.87v.17a41.77 41.77 0 0 0 0 83.36z" fill="url(#h3083b70e-4e90-4ba4-aa6b-00306f572fa0)"></path><path d="M41.84 487.71H63.76a41.82 41.82 0 0 0 41.82-41.82A41.82 41.82 0 0 0 63.76 404H41.89a41.84 41.84 0 0 0 0 83.68z" fill="url(#i080354a0-0ee8-448a-ab20-0d2738c6f878)"></path><path d="M701.32 487.69H853a41.84 41.84 0 0 0 0-83.69h-91a27.88 27.88 0 0 1 0-55.76h14.82a41.82 41.82 0 1 0 0-83.64h-90.65a27.9 27.9 0 0 1-.34-55.79 41.82 41.82 0 0 0 0-83.64H571.19a41.82 41.82 0 1 0 0 83.64h8.18a27.9 27.9 0 0 1 0 55.79h-8.18a41.82 41.82 0 1 0 0 83.64h90a27.88 27.88 0 1 1 0 55.76h-90a41.84 41.84 0 1 0 0 83.67h29.4a27.88 27.88 0 1 1 0 55.76h-29.4a41.84 41.84 0 1 0 0 83.67h74.86a27.88 27.88 0 0 1 0 55.76h-74.86a41.83 41.83 0 1 0 0 83.65h11.22a27.9 27.9 0 0 1 0 55.79h-11.22a41.82 41.82 0 1 0 0 83.64h124.45a41.82 41.82 0 1 0 0-83.64h-15.53a27.9 27.9 0 0 1 0-55.79h111.35a41.83 41.83 0 0 0 0-83.65h-47.71a27.88 27.88 0 1 1 0-55.76h89.59a41.84 41.84 0 0 0 0-83.67h-132a27.88 27.88 0 1 1 0-55.76z" fill="url(#j4d0d31d9-5ce4-493b-a331-5eea623f6ab4)"></path><path d="M716.31 934.12a35.76 35.76 0 1 0 35.76 35.75 35.75 35.75 0 0 0-35.76-35.75z" fill="url(#kbbb49561-7446-4b09-9d95-af8fa381062c)"></path><path d="M716.31 106.31a35.76 35.76 0 1 0-35.75-35.76 35.76 35.76 0 0 0 35.75 35.76z" fill="url(#lb5e1f598-ce2e-4ac3-b21c-5c72a5dfe7e6)"></path><path d="M852.56 822.32H816a41.82 41.82 0 0 0 0 83.68h36.57a41.82 41.82 0 1 0 0-83.64z" fill="url(#m534167f2-41ec-45ed-824b-c8564b3a4996)"></path><path d="M958 683.17v-.28h-46.37a41.81 41.81 0 0 0-41.81 41.82 41.82 41.82 0 0 0 41.81 41.82H958v-.29a41.8 41.8 0 0 0 0-83.07z" fill="url(#nfde48857-6af8-4b65-8379-a5d9e4e4603d)"></path><path d="M995.16 543.45h-41.54a41.82 41.82 0 0 0 0 83.63h41.54a41.82 41.82 0 1 0 0-83.64z" fill="url(#obaa4240a-b9e9-4dde-874a-a62f5e856997)"></path><path d="M811.08 208.8H852.56v-1.18a41.77 41.77 0 0 0 0-81.23v-1.23h-41.48a41.82 41.82 0 0 0 0 83.64z" fill="url(#pf9cc8846-f056-4985-bb13-a0b63ae4d8a7)"></path><path d="M853.12 306.41a41.82 41.82 0 0 0 41.82 41.82H951.13v-.11a41.77 41.77 0 0 0 0-83.36v-.17h-56.19a41.82 41.82 0 0 0-41.82 41.82z" fill="url(#qf2a09f15-8283-4ffb-937f-5d53caf70fc1)"></path><path d="M973.24 404a41.82 41.82 0 0 0-41.82 41.82 41.82 41.82 0 0 0 41.82 41.82h21.92a41.84 41.84 0 1 0 0-83.68h-.06z" fill="url(#r2da040ed-e765-44fb-8b33-3e4949286052)"></path><path d="M444.25 83.64h148.5a41.82 41.82 0 1 0 0-83.64h-148.5a41.82 41.82 0 1 0 0 83.64z" fill="url(#s19ee097b-3c34-474d-8f94-760ccbf461a8)"></path><path d="M592.75 956.87h-148.5a41.82 41.82 0 0 0 0 83.64h148.5a41.82 41.82 0 1 0 0-83.64z" fill="url(#t957a53a2-88da-4b4d-9423-23a2baaedf96)"></path></g></g></svg></svg> <!----></g></g> <g transform="translate(67,21.48204517364502)"><g data-gra="path-name" fill-rule="" class="tp-name iconsvg-namesvg"><g transform="scale(1)"><g><path d="M2.53-19.07L21.54-19.07 20.38-9.72Q20.14-8.84 19.42-8.26 18.71-7.68 18.04-7.68L18.04-7.68 7.8-7.68 6.92-1.83 1.37-1.83 3.41-18.22 2.53-19.07ZM15.42-16.15L8.99-16.15 8.38-10.6 14.53-10.6 15.42-16.15ZM29.92-19.07L41.92-19.07 44.24-1.83 39-1.83 38.39-6.52 31.08-6.52 29.04-1.83 24.07-1.83 30.8-18.22 29.92-19.07ZM37.23-16.15L35.19-16.15 32.26-9.44 38.11-9.44 37.23-16.15ZM48.08-19.07L67.09-19.07 65.93-9.72Q65.69-8.84 64.97-8.26 64.26-7.68 63.58-7.68L63.58-7.68 53.35-7.68 52.46-1.83 46.92-1.83 48.96-18.22 48.08-19.07ZM60.96-16.15L54.54-16.15 53.93-10.6 60.08-10.6 60.96-16.15ZM71.14-19.07L87.81-19.07 87.53-16.15 77.87-16.15 77.3-12.37 86.34-12.37 86.07-9.44 76.69-9.44 76.11-4.75 86.34-4.75 86.07-1.83 69.68-1.83 72.02-17.91 71.14-19.07ZM91.55-19.07L110.57-19.07 109.41-10.3Q109.41-9.87 109.21-9.49 109.01-9.11 108.68-8.84 108.34-8.56 107.93-8.41 107.52-8.26 107.06-8.26L107.06-8.26 103.25-8.26 109.41-1.83 102.98-1.83 97.13-8.26 96.25-1.83 90.4-1.83 92.44-17.91 91.55-19.07ZM104.44-16.15L98.01-16.15 97.4-11.18 103.86-11.18 104.44-16.15ZM114.47-19.07L121.5-19.07 120.62-12.37 127.41-12.37 128.24-17.91 127.35-19.07 134.09-19.07 131.74-1.83 125.89-1.83 127.05-9.44 120.22-9.44 119.16-1.83 113.31-1.83 115.65-18.22 114.47-19.07ZM142.62-19.07L154.62-19.07 156.94-1.83 151.7-1.83 151.09-6.52 143.77-6.52 141.73-1.83 136.77-1.83 143.5-18.22 142.62-19.07ZM149.93-16.15L147.89-16.15 144.96-9.44 150.81-9.44 149.93-16.15ZM169.85-1.83L164-1.83 166.05-16.15 159.62-16.15 159.92-19.07 178.63-19.07 178.05-16.15 171.9-16.15 169.85-1.83Z" transform="translate(-1.3700000047683716, 19.06999969482422)"></path></g> <!----> <!----> <!----> <!----> <!----> <!----> <!----></g></g> <!----></g></g><defs v-gra="od"></defs></svg>